# xmcd
#
# Track frame offsets: 
#        150
#        11517
#        24901
#        37398
#        56573
#        69800
#        82959
#        101011
#        113999
#        129040
#        143864
#        158035
#        176645
#        193698
#        209773
#
# Disc length: 3031 seconds
#
# Revision: 1
# Processed by: cddbd v1.5.1PL0 Copyright (c) Steve Scherf et al.
# Submitted via: ExactAudioCopy v0.95a5
#
DISCID=c90bd50f
DTITLE=El Poder Del Norte - 15 Poderoso corridos
DYEAR=2002
DGENRE=Norteña
TTITLE0=El pase de la pantera
TTITLE1=Paso en mi pueblo
TTITLE2=Yo también soy pistolero
TTITLE3=El jefe pacas de a kilo
TTITLE4=Dónde estará mi caballo?
TTITLE5=Buenos días California
TTITLE6=Negocio prohibido
TTITLE7=Cuatro asesinos
TTITLE8=El plebe y el güerco
TTITLE9=La muerte de un federal
TTITLE10=El coyote negro
TTITLE11=El mandado
TTITLE12=Silvestre y el güero Andrés
TTITLE13=El fiscal
TTITLE14=10 Kilos
EXTD=
EXTT0=
EXTT1=
EXTT2=
EXTT3=
EXTT4=
EXTT5=
EXTT6=
EXTT7=
EXTT8=
EXTT9=
EXTT10=
EXTT11=
EXTT12=
EXTT13=
EXTT14=
PLAYORDER=
